<?xml version="1.0" encoding="UTF-8"?>
<svg id="Camada_2" data-name="Camada 2" xmlns="http://www.w3.org/2000/svg" viewBox="0 0 14.09 4.64">
  <defs>
    <style>
      .cls-1 {
        fill: #fd6600;
        stroke-width: 0px;
      }
    </style>
  </defs>
  <g id="Camada_1-2" data-name="Camada 1">
    <polygon class="cls-1" points="14.09 2.89 12.19 2.89 13.57 4.3 13.21 4.64 11.49 2.89 11.46 2.86 11.24 2.63 11.22 2.61 11.22 0 11.72 0 11.72 2.03 13.15 .59 13.51 .95 12.06 2.39 14.09 2.39 14.09 2.89"/>
    <g>
      <path class="cls-1" d="M.47,3.8h-.03v.47h-.43V0h.45v1.79h.03c.09-.15.39-.55,1.01-.55.84,0,1.41.65,1.41,1.56s-.6,1.55-1.45,1.55c-.64,0-.92-.43-1-.54ZM2.45,2.8c0-.68-.42-1.16-1-1.16s-1.01.42-1.01,1.16c0,.62.39,1.14,1,1.14.57,0,1.01-.45,1.01-1.14Z"/>
      <path class="cls-1" d="M3.22,1.31h.44v.5h.03c.09-.25.38-.57.81-.57h.19v.45h-.27c-.54,0-.76.44-.76,1v1.58h-.45V1.31Z"/>
      <path class="cls-1" d="M4.62,2.8c0-.94.65-1.57,1.43-1.57.89,0,1.41.63,1.41,1.51v.17h-2.38c0,.66.39,1.03,1.01,1.03.42,0,.8-.24.89-.65l.44.1c-.17.55-.65.94-1.34.94-.9,0-1.46-.63-1.46-1.54ZM6.99,2.55c-.03-.61-.46-.91-.95-.91s-.93.35-.96.91h1.91Z"/>
      <path class="cls-1" d="M7.37,1.31h.48l.89,2.54h.03l.89-2.54h.5l-1.1,2.96h-.59l-1.1-2.96Z"/>
    </g>
  </g>
</svg>